REM DIRINDEX 1\2,1\3,1\4,1\5,1\6
REM DIRNAME folder01,folder02,folder03,folder04,folder05,folder06
TITLE ""
FILE "DISC4Track22.mp3" MP3
  TRACK 01 AUDIO
    TITLE "0:"
    INDEX 01 00:00:00
  TRACK 02 AUDIO
    TITLE "3:cjc129_3497"
    INDEX 01 00:00:05
  TRACK 03 AUDIO
    TITLE "0:"
    INDEX 01 00:01:50
  TRACK 04 AUDIO
    TITLE "5:cjc129_3498"
    INDEX 01 00:02:04
  TRACK 05 AUDIO
    TITLE "0:"
    INDEX 01 00:04:25
  TRACK 06 AUDIO
    TITLE "4:cjc129_3499"
    INDEX 01 00:05:16
  TRACK 07 AUDIO
    TITLE "0:"
    INDEX 01 00:06:59
  TRACK 08 AUDIO
    TITLE "6:cjc129_3500"
    INDEX 01 00:07:15
  TRACK 09 AUDIO
    TITLE "0:"
    INDEX 01 00:11:25
  TRACK 10 AUDIO
    TITLE "3:cjc129_3501"
    INDEX 01 00:13:00
  TRACK 11 AUDIO
    TITLE "0:"
    INDEX 01 00:16:22
  TRACK 12 AUDIO
    TITLE "5:cjc129_3502"
    INDEX 01 00:16:53
  TRACK 13 AUDIO
    TITLE "0:"
    INDEX 01 00:22:50
  TRACK 14 AUDIO
    TITLE "4:cjc129_3503"
    INDEX 01 00:23:42
  TRACK 15 AUDIO
    TITLE "0:"
    INDEX 01 00:26:66
  TRACK 16 AUDIO
    TITLE "6:cjc129_3504"
    INDEX 01 00:27:22
  TRACK 17 AUDIO
    TITLE "0:"
    INDEX 01 00:31:47
  TRACK 18 AUDIO
    TITLE "2:cjc129_3505"
    INDEX 01 00:33:24
  TRACK 19 AUDIO
    TITLE "0:"
    INDEX 01 00:40:01
  TRACK 20 AUDIO
    TITLE "3:cjc129_3506"
    INDEX 01 00:41:14
  TRACK 21 AUDIO
    TITLE "0:"
    INDEX 01 00:42:70
  TRACK 22 AUDIO
    TITLE "5:cjc129_3507"
    INDEX 01 00:43:27
  TRACK 23 AUDIO
    TITLE "0:"
    INDEX 01 00:50:13
  TRACK 24 AUDIO
    TITLE "4:cjc129_3508"
    INDEX 01 00:51:03
  TRACK 25 AUDIO
    TITLE "0:"
    INDEX 01 00:52:61
  TRACK 26 AUDIO
    TITLE "6:cjc129_3509"
    INDEX 01 00:53:15
  TRACK 27 AUDIO
    TITLE "0:"
    INDEX 01 00:57:11
  TRACK 28 AUDIO
    TITLE "3:cjc129_3510"
    INDEX 01 00:58:64
  TRACK 29 AUDIO
    TITLE "0:"
    INDEX 01 01:00:60
  TRACK 30 AUDIO
    TITLE "5:cjc129_3511"
    INDEX 01 01:01:17
  TRACK 31 AUDIO
    TITLE "0:"
    INDEX 01 01:03:31
  TRACK 32 AUDIO
    TITLE "4:cjc129_3512"
    INDEX 01 01:04:23
  TRACK 33 AUDIO
    TITLE "0:"
    INDEX 01 01:06:22
  TRACK 34 AUDIO
    TITLE "6:cjc129_3513"
    INDEX 01 01:06:51
  TRACK 35 AUDIO
    TITLE "0:"
    INDEX 01 01:12:13
  TRACK 36 AUDIO
    TITLE "3:cjc129_3514"
    INDEX 01 01:13:65
  TRACK 37 AUDIO
    TITLE "0:"
    INDEX 01 01:15:39
  TRACK 38 AUDIO
    TITLE "5:cjc129_3515"
    INDEX 01 01:15:70
  TRACK 39 AUDIO
    TITLE "0:"
    INDEX 01 01:20:38
  TRACK 40 AUDIO
    TITLE "4:cjc129_3516"
    INDEX 01 01:21:27
  TRACK 41 AUDIO
    TITLE "0:"
    INDEX 01 01:23:01
  TRACK 42 AUDIO
    TITLE "6:cjc129_3517"
    INDEX 01 01:23:32
  TRACK 43 AUDIO
    TITLE "0:"
    INDEX 01 01:28:10
  TRACK 44 AUDIO
    TITLE "3:cjc129_3518"
    INDEX 01 01:29:58
  TRACK 45 AUDIO
    TITLE "0:"
    INDEX 01 01:33:40
  TRACK 46 AUDIO
    TITLE "5:cjc129_3519"
    INDEX 01 01:33:72
  TRACK 47 AUDIO
    TITLE "0:"
    INDEX 01 01:36:50
  TRACK 48 AUDIO
    TITLE "4:cjc129_3520"
    INDEX 01 01:37:40
  TRACK 49 AUDIO
    TITLE "0:"
    INDEX 01 01:41:22
  TRACK 50 AUDIO
    TITLE "6:cjc129_3521"
    INDEX 01 01:41:54
  TRACK 51 AUDIO
    TITLE "0:"
    INDEX 01 01:45:53
  TRACK 52 AUDIO
    TITLE "3:cjc129_3522"
    INDEX 01 01:47:27
  TRACK 53 AUDIO
    TITLE "0:"
    INDEX 01 01:49:43
  TRACK 54 AUDIO
    TITLE "5:cjc129_3523"
    INDEX 01 01:50:00
  TRACK 55 AUDIO
    TITLE "0:"
    INDEX 01 01:51:62
  TRACK 56 AUDIO
    TITLE "4:cjc129_3524"
    INDEX 01 01:52:51
  TRACK 57 AUDIO
    TITLE "0:"
    INDEX 01 01:54:68
  TRACK 58 AUDIO
    TITLE "6:cjc129_3525"
    INDEX 01 01:55:24
  TRACK 59 AUDIO
    TITLE "0:"
    INDEX 01 02:01:52
  TRACK 60 AUDIO
    TITLE "3:cjc129_3526"
    INDEX 01 02:03:28
  TRACK 61 AUDIO
    TITLE "0:"
    INDEX 01 02:06:05
  TRACK 62 AUDIO
    TITLE "5:cjc129_3527"
    INDEX 01 02:06:34
  TRACK 63 AUDIO
    TITLE "0:"
    INDEX 01 02:09:28
  TRACK 64 AUDIO
    TITLE "4:cjc129_3528"
    INDEX 01 02:10:16
  TRACK 65 AUDIO
    TITLE "0:"
    INDEX 01 02:12:64
  TRACK 66 AUDIO
    TITLE "6:cjc129_3529"
    INDEX 01 02:13:22
  TRACK 67 AUDIO
    TITLE "0:"
    INDEX 01 02:17:20
